<svg width="55" height="28" viewBox="0 0 55 28" fill="none" xmlns="http://www.w3.org/2000/svg">
<g filter="url(#filter0_d_326_436)">
<rect x="4" width="47" height="20" rx="10" fill="#70559B"/>
<path d="M17.28 9.2C17.1533 8.96667 16.97 8.79 16.73 8.67C16.4967 8.54333 16.22 8.48 15.9 8.48C15.3467 8.48 14.9033 8.66333 14.57 9.03C14.2367 9.39 14.07 9.87333 14.07 10.48C14.07 11.1267 14.2433 11.6333 14.59 12C14.9433 12.36 15.4267 12.54 16.04 12.54C16.46 12.54 16.8133 12.4333 17.1 12.22C17.3933 12.0067 17.6067 11.7 17.74 11.3H15.57V10.04H19.29V11.63C19.1633 12.0567 18.9467 12.4533 18.64 12.82C18.34 13.1867 17.9567 13.4833 17.49 13.71C17.0233 13.9367 16.4967 14.05 15.91 14.05C15.2167 14.05 14.5967 13.9 14.05 13.6C13.51 13.2933 13.0867 12.87 12.78 12.33C12.48 11.79 12.33 11.1733 12.33 10.48C12.33 9.78667 12.48 9.17 12.78 8.63C13.0867 8.08333 13.51 7.66 14.05 7.36C14.59 7.05333 15.2067 6.9 15.9 6.9C16.74 6.9 17.4467 7.10333 18.02 7.51C18.6 7.91667 18.9833 8.48 19.17 9.2H17.28ZM23.6672 8.36C24.3072 8.36 24.8205 8.57333 25.2072 9C25.5939 9.42 25.7872 10 25.7872 10.74V14H24.0872V10.97C24.0872 10.5967 23.9905 10.3067 23.7972 10.1C23.6039 9.89333 23.3439 9.79 23.0172 9.79C22.6905 9.79 22.4305 9.89333 22.2372 10.1C22.0439 10.3067 21.9472 10.5967 21.9472 10.97V14H20.2372V6.6H21.9472V9.17C22.1205 8.92333 22.3572 8.72667 22.6572 8.58C22.9572 8.43333 23.2939 8.36 23.6672 8.36ZM29.5155 14.08C28.9688 14.08 28.4755 13.9633 28.0355 13.73C27.6021 13.4967 27.2588 13.1633 27.0055 12.73C26.7588 12.2967 26.6355 11.79 26.6355 11.21C26.6355 10.6367 26.7621 10.1333 27.0155 9.7C27.2688 9.26 27.6155 8.92333 28.0555 8.69C28.4955 8.45667 28.9888 8.34 29.5355 8.34C30.0821 8.34 30.5755 8.45667 31.0155 8.69C31.4555 8.92333 31.8021 9.26 32.0555 9.7C32.3088 10.1333 32.4355 10.6367 32.4355 11.21C32.4355 11.7833 32.3055 12.29 32.0455 12.73C31.7921 13.1633 31.4421 13.4967 30.9955 13.73C30.5555 13.9633 30.0621 14.08 29.5155 14.08ZM29.5155 12.6C29.8421 12.6 30.1188 12.48 30.3455 12.24C30.5788 12 30.6955 11.6567 30.6955 11.21C30.6955 10.7633 30.5821 10.42 30.3555 10.18C30.1355 9.94 29.8621 9.82 29.5355 9.82C29.2021 9.82 28.9255 9.94 28.7055 10.18C28.4855 10.4133 28.3755 10.7567 28.3755 11.21C28.3755 11.6567 28.4821 12 28.6955 12.24C28.9155 12.48 29.1888 12.6 29.5155 12.6ZM35.6127 14.08C35.126 14.08 34.6927 13.9967 34.3127 13.83C33.9327 13.6633 33.6327 13.4367 33.4127 13.15C33.1927 12.8567 33.0693 12.53 33.0427 12.17H34.7327C34.7527 12.3633 34.8427 12.52 35.0027 12.64C35.1627 12.76 35.3593 12.82 35.5927 12.82C35.806 12.82 35.9693 12.78 36.0827 12.7C36.2027 12.6133 36.2627 12.5033 36.2627 12.37C36.2627 12.21 36.1793 12.0933 36.0127 12.02C35.846 11.94 35.576 11.8533 35.2027 11.76C34.8027 11.6667 34.4693 11.57 34.2027 11.47C33.936 11.3633 33.706 11.2 33.5127 10.98C33.3193 10.7533 33.2227 10.45 33.2227 10.07C33.2227 9.75 33.3093 9.46 33.4827 9.2C33.6627 8.93333 33.9227 8.72333 34.2627 8.57C34.6093 8.41667 35.0193 8.34 35.4927 8.34C36.1927 8.34 36.7427 8.51333 37.1427 8.86C37.5493 9.20667 37.7827 9.66667 37.8427 10.24H36.2627C36.236 10.0467 36.1493 9.89333 36.0027 9.78C35.8627 9.66667 35.676 9.61 35.4427 9.61C35.2427 9.61 35.0893 9.65 34.9827 9.73C34.876 9.80333 34.8227 9.90667 34.8227 10.04C34.8227 10.2 34.906 10.32 35.0727 10.4C35.246 10.48 35.5127 10.56 35.8727 10.64C36.286 10.7467 36.6227 10.8533 36.8827 10.96C37.1427 11.06 37.3693 11.2267 37.5627 11.46C37.7627 11.6867 37.866 11.9933 37.8727 12.38C37.8727 12.7067 37.7793 13 37.5927 13.26C37.4127 13.5133 37.1493 13.7133 36.8027 13.86C36.4627 14.0067 36.066 14.08 35.6127 14.08ZM42.0288 12.55V14H41.1588C40.5388 14 40.0555 13.85 39.7088 13.55C39.3622 13.2433 39.1888 12.7467 39.1888 12.06V9.84H38.5088V8.42H39.1888V7.06H40.8988V8.42H42.0188V9.84H40.8988V12.08C40.8988 12.2467 40.9388 12.3667 41.0188 12.44C41.0988 12.5133 41.2322 12.55 41.4188 12.55H42.0288Z" fill="white"/>
</g>
<defs>
<filter id="filter0_d_326_436" x="0" y="0" width="55" height="28" filterUnits="userSpaceOnUse" color-interpolation-filters="sRGB">
<feFlood flood-opacity="0" result="BackgroundImageFix"/>
<feColorMatrix in="SourceAlpha" type="matrix" values="0 0 0 0 0 0 0 0 0 0 0 0 0 0 0 0 0 0 127 0" result="hardAlpha"/>
<feOffset dy="4"/>
<feGaussianBlur stdDeviation="2"/>
<feComposite in2="hardAlpha" operator="out"/>
<feColorMatrix type="matrix" values="0 0 0 0 0 0 0 0 0 0 0 0 0 0 0 0 0 0 0.25 0"/>
<feBlend mode="normal" in2="BackgroundImageFix" result="effect1_dropShadow_326_436"/>
<feBlend mode="normal" in="SourceGraphic" in2="effect1_dropShadow_326_436" result="shape"/>
</filter>
</defs>
</svg>
