<?xml version="1.0" standalone="no"?>
<!DOCTYPE svg PUBLIC "-//W3C//DTD SVG 20010904//EN"
 "http://www.w3.org/TR/2001/REC-SVG-20010904/DTD/svg10.dtd">
<svg version="1.0" xmlns="http://www.w3.org/2000/svg"
 width="64.000000pt" height="64.000000pt" viewBox="0 0 64.000000 64.000000"
 preserveAspectRatio="xMidYMid meet">

<g transform="translate(0.000000,64.000000) scale(0.100000,-0.100000)"
fill="#000000" stroke="none">
<path d="M220 624 c-227 -82 -293 -362 -125 -529 65 -65 125 -89 225 -89 100
0 160 24 225 89 65 65 89 125 89 225 0 100 -24 160 -89 225 -82 82 -222 116
-325 79z m232 -71 c34 -19 65 -47 85 -77 33 -48 56 -112 47 -128 -3 -4 -34 -8
-69 -8 -61 0 -65 2 -80 29 -24 48 -62 71 -115 71 -53 0 -91 -23 -116 -71 -15
-29 -17 -30 -82 -27 l-67 3 3 30 c8 79 98 178 186 205 57 17 150 5 208 -27z
m-80 -180 c23 -20 24 -80 1 -105 -20 -23 -80 -24 -105 -1 -23 20 -24 80 -1
105 20 23 80 24 105 1z m-167 -103 c22 -68 135 -94 194 -45 16 14 33 35 36 45
6 18 16 20 81 20 l74 0 -6 -27 c-35 -147 -190 -242 -331 -204 -92 25 -176 112
-197 204 l-6 27 74 0 c65 0 75 -2 81 -20z"/>
<path d="M300 320 c0 -13 7 -20 20 -20 13 0 20 7 20 20 0 13 -7 20 -20 20 -13
0 -20 -7 -20 -20z"/>
</g>
</svg>
